<svg width="66.000000" height="28.626465" viewBox="0 0 66 28.6265" fill="none" xmlns="http://www.w3.org/2000/svg" xmlns:xlink="http://www.w3.org/1999/xlink">
	<desc>
			Created with Pixso.
	</desc>
	<defs/>
	<path id="Vector" d="M58.33 26.68C57.6 27.53 56.11 27.4 55.87 26.16C55.75 25.55 55.92 24.81 56.19 24.29C56.78 23.15 57.85 22.22 59.07 21.91C59.07 22.61 59.07 23.53 59.05 24.24C59.03 25.03 58.86 26.06 58.33 26.68ZM46.53 9.93C47.21 9.98 47.75 10.72 47.57 11.98C47.35 13.47 46.11 15.07 44.7 15.43C44.47 14.9 44.37 13.82 44.49 12.76C44.73 10.82 45.72 9.89 46.53 9.93ZM20.11 17.16C19.06 15.76 19.1 14.06 19.43 12.45C20.46 14.76 23.2 15.17 24.9 14.83C24.67 16.61 23.74 18.16 22.13 18.16C21.23 18.17 20.57 17.78 20.11 17.16ZM23.82 10.63C24.33 11.16 24.68 11.93 24.84 12.78C24.84 12.78 24.84 12.79 24.84 12.79C24.84 12.79 24.84 12.79 24.84 12.78C23.66 12.95 22.51 12.73 21.68 12.08C21.07 11.61 20.91 10.85 21.17 10.4C21.54 9.74 22.65 9.46 23.82 10.63ZM7.66 1.95C8.39 1.09 9.88 1.23 10.11 2.46C10.23 3.07 10.07 3.81 9.8 4.33C9.21 5.46 8.14 6.39 6.92 6.71C6.92 6 6.91 5.09 6.94 4.38C6.96 3.6 7.13 2.56 7.66 1.95ZM61.77 20.31C61.78 16.63 61.77 12.94 61.77 9.26C61.77 8.34 59.15 8.29 59.07 9.21C59.07 9.58 59.07 9.96 59.06 10.34C59.02 12.36 58.05 16.14 56.45 17.52C56.02 17.89 55.62 17.91 55.35 17.71C55.1 17.53 55.04 17.07 55.04 16.68L55.04 16.17C55.04 13.89 55.05 11.54 55.04 9.27C55.04 8.35 52.42 8.29 52.34 9.21C52.34 11.33 52.34 13.39 52.35 15.48C50.62 18.24 46.63 19.53 44.97 16.27C46 16.66 47.09 16.47 47.83 16.08C49.12 15.4 50.09 14.28 50.28 12.5C50.46 7.28 43.57 6.57 42.04 11.88C41.78 12.76 41.64 13.7 41.68 14.63C41.71 15.5 41.89 16.32 42.2 17.04C41.63 17.59 40.99 17.97 40.34 17.95C39.49 17.92 39.58 16.87 39.58 16.27L39.58 12.3C39.58 11.82 39.58 11.34 39.53 10.88C39.4 9.49 38.34 8.39 36.85 8.29C34.74 8.26 33.26 10.22 32.53 12.37C32.52 11.17 32.53 10.46 32.53 9.26C32.52 8.35 30.09 8.29 29.82 9.24C29.47 10.45 28.32 11.39 27.25 11.96C26.92 11.16 26.51 10.43 25.94 9.81C23.58 7.25 20.18 7.72 18.19 9.83C16.61 11.5 16.13 14.52 16.98 16.64C16.35 17.38 15.5 17.98 14.73 17.95C14.35 17.93 14.14 17.71 14.04 17.36C13.95 17.02 13.97 16.62 13.97 16.27C13.97 14.94 13.96 13.62 13.97 12.3C13.97 11.82 13.97 11.34 13.93 10.88C13.79 9.49 12.97 8.38 11.43 8.28C8.77 8.16 7.7 10.74 6.91 12.86L6.91 8.33C7.47 8.24 8.01 8.1 8.55 7.94C14.41 6.26 13.28 0.1 8.91 0C5.97 -0.07 4.22 1.87 4.24 4.82L4.24 6.72C3.18 6.56 2.39 5.19 1.94 4.3C1.88 4.16 1.81 4.02 1.75 3.88C1.7 3.75 1.55 3.67 1.41 3.71C1.29 3.75 1.18 3.79 1.06 3.83C0.64 4.02 0.29 4.35 0.12 4.78C-0.19 5.56 0.12 6.38 0.66 6.97C1.55 7.9 2.97 8.24 4.22 8.3C4.21 11.98 4.22 15.64 4.22 19.32C4.26 19.84 4.97 19.98 5.38 19.99C5.82 20 6.76 19.86 6.77 19.27L6.8 18.81C6.99 17.18 8.55 10.65 10.54 10.64C11.02 10.64 11.27 10.96 11.27 11.44L11.27 17.25C11.27 19.05 12.28 20.26 14.13 20.26C15.56 20.27 16.85 19.23 17.63 17.94C17.73 18.08 17.82 18.23 17.93 18.35C18.94 19.53 20.42 20.28 22.12 20.29C25.82 20.24 27.72 17.06 27.58 13.94C28.44 13.46 29.21 12.85 29.8 12.08L29.8 19.32C29.85 19.84 30.59 19.98 31 19.99C31.44 20 32.38 19.86 32.38 19.27L32.42 18.81L32.55 17.6C32.74 15.92 34 10.65 36.15 10.64C36.63 10.64 36.87 10.96 36.87 11.44L36.87 17.25C36.87 19.05 37.89 20.26 39.75 20.26C41.03 20.27 42.2 19.44 42.98 18.33C44.02 19.62 45.61 20.37 47.52 20.37C49.75 20.37 51.37 19.38 52.45 17.79C52.7 19.16 53.43 20.24 55.22 20.26C57.08 20.27 58.49 17.69 59.07 16.13L59.07 20.29C58.52 20.39 57.98 20.53 57.44 20.68C51.58 22.36 52.7 28.52 57.07 28.62C60.02 28.69 61.76 26.76 61.75 23.81C61.75 23.31 61.74 22.38 61.75 21.89C62.8 22.05 63.6 23.44 64.04 24.33C64.11 24.47 64.18 24.6 64.23 24.74C64.29 24.88 64.43 24.94 64.58 24.91C64.7 24.88 64.81 24.84 64.92 24.78C65.35 24.59 65.7 24.28 65.87 23.83C66.18 23.06 65.87 22.24 65.32 21.66C64.44 20.72 63.01 20.39 61.77 20.31Z" fill="#000000" fill-opacity="1.000000" fill-rule="evenodd"/>
</svg>
